<svg width="200" height="286" viewBox="0 0 200 286" fill="none" xmlns="http://www.w3.org/2000/svg">
<rect x="0.739258" y="0.414795" width="198.513" height="284.823" rx="36" fill="#9DDAF2"/>
<g clip-path="url(#clip0_71_11596)">
<path d="M58.0579 166.169C56.6753 166.383 55.2986 166.771 54.0753 167.452C54.9259 167.52 52.8973 167.371 53.0976 167.384C52.6094 167.365 52.1286 167.344 51.6521 167.351C50.2228 167.354 48.8256 167.552 47.3962 167.616C46.1992 167.747 44.9905 167.875 43.7848 167.958C41.0956 168.097 38.367 167.698 35.8093 166.833C34.8827 166.519 33.9415 166.277 33.0734 165.782C32.8103 165.644 32.5399 165.447 32.2944 165.276C31.7814 164.914 31.2684 164.545 30.7657 164.173C30.1284 163.683 29.424 163.091 28.8043 162.57C28.3308 162.152 27.8821 161.723 27.4261 161.292C27.9216 161.707 28.531 161.975 29.1682 162.061L29.1288 162.053L29.0352 162.034C27.4904 161.727 26.0362 160.985 24.867 159.923C23.6861 158.891 22.894 157.418 22.701 155.855C22.625 154.946 22.5154 153.4 22.4409 152.488C22.207 150.238 22.283 147.798 22.799 145.573C23.1775 144.02 23.594 142.569 24.0515 141.027C24.5557 139.744 24.544 138.158 23.9711 136.867C23.7957 137.293 25.2762 132.691 24.658 134.632C24.7121 134.632 24.7647 134.622 24.8144 134.598C24.943 134.542 25.0497 134.419 25.0906 134.257C25.2587 132.545 25.6577 130.859 26.4483 129.316C26.9219 128.439 27.353 127.53 27.6585 126.578C27.904 125.823 28.1203 124.978 28.3205 124.21C28.7035 122.907 29.5248 121.711 30.5771 120.828L30.6063 120.803C30.6063 120.8 30.6458 120.775 30.6166 120.79C30.3243 120.939 29.9911 121.272 29.8332 121.475C29.9604 121.148 30.1226 120.76 30.2527 120.435C31.5388 117.777 33.9532 115.902 36.9522 115.818C37.8072 115.8 38.6622 116.033 39.4149 116.442C39.5347 116.509 39.808 116.628 39.9206 116.693L40.0039 116.736C40.0141 116.742 40.0083 116.738 40.0068 116.736C39.8533 116.642 39.6619 116.621 39.488 116.664L38.0528 117.141C39.9966 115.991 42.3876 115.654 44.5053 116.37C45.5225 116.537 43.3683 116.216 43.5656 116.249L43.6591 116.258C43.8155 116.27 44.1166 116.302 44.27 116.314C44.1049 116.326 43.9368 116.335 43.776 116.371C43.3858 116.45 43.0058 116.621 42.6857 116.856L42.7281 116.832C46.0238 115.065 49.5183 113.522 53.3314 113.106C53.7479 113.068 54.1805 113.069 54.5971 113.081C54.6336 113.081 54.6599 113.09 54.6921 113.094L55.0618 113.147C55.5573 113.212 56.0469 113.269 56.5847 113.304C56.9852 113.331 57.1883 113.846 56.8946 114.132C56.3786 114.659 55.7297 115.084 55.0984 115.459C54.8572 115.635 54.6146 115.842 54.3851 116.028C52.2046 117.919 50.0781 119.97 47.8785 121.869C47.4985 122.201 47.117 122.53 46.7341 122.858C46.0501 123.351 45.2171 123.637 44.3767 123.668C44.1414 123.674 43.7994 123.718 43.5627 123.736C43.7731 123.769 41.6261 123.466 42.5352 123.594C42.411 123.648 42.316 123.738 42.2824 123.813C42.202 123.859 41.9638 124.011 41.8936 124.051C38.9501 125.02 41.1702 124.304 40.359 124.542C38.9428 124.727 37.4711 124.445 36.2244 123.739C36.0709 123.652 35.8035 123.501 35.6529 123.411L35.612 123.388L35.5916 123.376C35.9803 123.586 36.505 123.704 36.9595 123.69C36.8719 123.602 36.7579 123.54 36.6161 123.515C36.4261 123.586 36.2434 123.665 36.0592 123.761C35.8693 123.857 35.6778 123.972 35.501 124.096L35.2233 124.356C35.0669 124.499 34.8477 124.713 34.6957 124.852C34.418 125.227 34.057 125.568 33.6463 125.801C33.6054 125.825 33.6288 125.807 33.6171 125.813C33.2809 125.81 32.9725 125.897 32.6627 126.083C32.5531 126.162 32.4771 126.193 32.3879 126.318C32.1833 126.566 31.9758 126.815 31.7785 127.068C31.5023 127.409 31.0696 127.967 30.7963 128.324L28.8745 130.764C28.3805 131.448 28.0516 132.261 27.9172 133.103C27.8514 133.475 27.8309 134.109 27.8134 134.495C27.7622 135.701 27.0023 136.883 25.9207 137.444C25.2938 139.428 26.7275 134.765 26.5916 135.253L26.6077 135.277C27.9011 137.103 28.6874 139.199 28.8262 141.49C28.9256 142.482 29.0703 143.513 29.1843 144.525C29.2881 145.47 29.3831 146.407 29.5497 147.329C29.918 149.591 30.5669 151.9 31.0989 154.147L31.1442 154.332L31.1661 154.425L31.1778 154.47L31.1836 154.494C31.1471 154.013 30.9483 153.545 30.6239 153.182L30.5537 153.105L30.5172 153.068C30.5084 153.059 30.5113 153.062 30.5113 153.061C30.5508 153.027 30.5757 152.963 30.5625 152.911V152.906V152.903C30.5654 152.903 30.5552 152.901 30.5698 152.903C31.6177 153.052 32.6159 153.505 33.4271 154.193C34.0657 154.689 34.7366 155.232 35.3796 155.719C35.7289 155.983 36.0782 156.283 36.4261 156.549C36.904 156.933 37.4769 157.362 37.9051 157.728C37.797 157.656 37.6786 157.6 37.5558 157.561C37.4828 157.535 37.5938 157.584 37.6391 157.606L37.8101 157.685C38.6374 158.059 39.4441 158.487 40.2669 158.869C41.6671 159.507 43.1315 160.013 44.6427 160.351C46.322 160.697 48.0334 161.087 49.644 161.662C51.2721 162.167 52.9017 162.89 54.3281 163.843C54.543 163.866 52.5305 163.705 53.3957 163.773H53.4235C54.5605 163.82 55.7122 164.063 56.7543 164.504C57.2702 164.716 57.7583 164.994 58.2216 165.297C58.4423 165.435 58.5095 165.728 58.3722 165.951C58.2991 166.069 58.1822 166.142 58.0579 166.166V166.169Z" fill="#0E460C"/>
<path d="M56.7441 113.276C56.7704 112.898 56.8142 112.101 56.8391 111.729C56.8683 111.391 56.918 110.831 56.9487 110.493C56.9794 110.177 57.0364 109.739 57.0948 109.426C57.1182 109.304 57.2132 108.694 57.3272 109.079C57.4193 109.389 57.5187 109.817 57.5596 110.164C57.6224 110.663 57.6721 111.313 57.735 111.813C57.7452 111.91 57.7701 112.123 57.7934 112.215C57.8314 112.426 57.887 112.467 57.925 112.212C57.9396 112.102 57.9571 112.017 57.9688 111.899C57.9966 111.581 58.0565 110.939 58.0857 110.622C58.1091 110.393 58.1267 110.087 58.1734 109.863C58.2144 109.58 58.283 109.814 58.3196 109.955C58.3371 110.037 58.362 110.2 58.378 110.288C58.4029 110.411 58.4234 110.668 58.4365 110.797C58.4584 111.044 58.511 111.518 58.5242 111.757C58.5549 112.489 58.6557 113.437 58.6119 114.165C58.5783 114.681 58.5432 115.536 58.495 116.044C58.4613 116.342 58.4277 116.86 58.378 117.154C58.3503 117.307 58.3225 117.538 58.2611 117.669C58.2129 117.772 58.188 117.672 58.1734 117.578C58.1281 117.352 58.1091 117.049 58.0857 116.819C58.0565 116.5 57.9981 115.861 57.9688 115.542C57.9571 115.424 57.9396 115.338 57.925 115.229C57.8855 114.965 57.83 115.025 57.7934 115.226C57.7701 115.319 57.7452 115.532 57.735 115.627C57.7014 115.904 57.6444 116.466 57.6181 116.743C57.583 117.121 57.5362 117.544 57.4441 117.907C57.3608 118.226 57.2688 118.868 57.1241 118.172C56.9838 117.476 56.9253 116.671 56.8625 115.961C56.8537 115.852 56.8376 115.7 56.8332 115.592C56.7996 114.886 56.7017 113.982 56.7455 113.279L56.7441 113.276Z" fill="#0E460C"/>
<path d="M57.6999 129.648C55.9417 128.866 53.9116 127.497 53.4513 125.666C53.2817 124.768 53.8853 123.963 54.2449 123.177C54.7754 122.033 57.3228 121.134 56.7294 119.691C56.3977 118.967 54.9771 118.314 54.4772 117.7C53.9116 117.077 54.2799 116.327 54.7169 115.709C55.4813 114.782 56.3538 114.259 57.6984 113.717C57.9922 113.605 58.3035 113.612 58.5753 113.717C59.9199 114.258 60.7939 114.78 61.5568 115.709C61.9953 116.326 62.3621 117.079 61.7965 117.7C61.1184 118.565 58.8369 119.272 59.6086 120.686C59.9872 121.404 61.1344 122.058 61.6664 122.678C61.9602 122.986 62.1005 123.312 62.2803 123.673C62.444 124.005 62.6223 124.337 62.7348 124.668C62.9949 125.372 62.802 126.027 62.4045 126.659C61.9047 127.444 61.2367 128.069 60.3905 128.65C59.8878 128.983 59.3455 129.315 58.5753 129.645C58.2845 129.771 57.9673 129.76 57.6984 129.645L57.6999 129.648Z" fill="#0E460C"/>
<path d="M57.6999 165.734C56.8829 165.633 56.0352 165.515 55.2343 165.338C54.8645 165.258 54.562 165.184 54.2244 165.074C53.9452 164.967 53.6354 164.883 53.4498 164.678C53.2949 164.44 53.8108 164.269 53.9935 164.151C54.1645 164.063 54.2916 163.975 54.619 163.887C55.132 163.736 55.7634 163.636 56.2778 163.491C56.8814 163.332 57.089 163.141 56.3392 162.964C56.0045 162.882 55.3965 162.771 55.0311 162.7C54.8718 162.669 54.6892 162.62 54.5299 162.585C54.3589 162.524 54.0782 162.465 54.2273 162.304C54.3106 162.216 54.4582 162.129 54.7213 162.04C54.9771 161.952 55.3015 161.864 55.8028 161.776C56.025 161.727 56.4167 161.677 56.6461 161.645C57.2614 161.56 57.9527 161.442 58.5753 161.513C59.48 161.612 60.7676 161.771 61.551 162.04C61.7965 162.121 62.1677 162.293 62.0683 162.436C61.9295 162.57 61.5363 162.625 61.3259 162.682C60.9254 162.761 60.3043 162.873 59.9331 162.963C59.0255 163.183 59.5779 163.383 60.1099 163.524C60.5849 163.642 61.1841 163.751 61.6547 163.887C62.1341 164.03 62.3899 164.203 62.7348 164.414C63.0622 164.665 62.6237 164.842 62.3986 164.941C62.1663 165.043 61.8593 165.137 61.6006 165.205C60.9649 165.37 60.2122 165.509 59.5516 165.601C58.9582 165.685 58.2962 165.81 57.6984 165.732L57.6999 165.734Z" fill="#0E460C"/>
</g>
<g clip-path="url(#clip1_71_11596)">
<path d="M108.554 96.4697C107.172 96.6838 105.795 97.072 104.572 97.7526C105.422 97.8205 103.394 97.6714 103.594 97.6846C103.106 97.6655 102.625 97.6448 102.148 97.6522C100.719 97.6551 99.3219 97.8529 97.8926 97.9164C96.6956 98.0478 95.4869 98.1762 94.2812 98.2589C91.592 98.3976 88.8633 97.9991 86.3057 97.134C85.3791 96.8196 84.4379 96.5775 83.5697 96.083C83.3067 95.9442 83.0363 95.7479 82.7908 95.5767C82.2778 95.215 81.7648 94.8459 81.262 94.4739C80.6248 93.9839 79.9204 93.3919 79.3007 92.8708C78.8271 92.4531 78.3785 92.0235 77.9225 91.5924C78.4179 92.0072 79.0274 92.2759 79.6646 92.3615L79.6251 92.3541L79.5316 92.335C77.9868 92.0279 76.5326 91.2854 75.3634 90.224C74.1825 89.1922 73.3903 87.7189 73.1974 86.1557C73.1214 85.2463 73.0118 83.7008 72.9373 82.7885C72.7034 80.5388 72.7794 78.0987 73.2953 75.874C73.6739 74.3211 74.0904 72.87 74.5478 71.3274C75.0521 70.0446 75.0404 68.4592 74.4675 67.1675C74.2921 67.5941 75.7726 62.9914 75.1544 64.9326C75.2084 64.9326 75.2611 64.9222 75.3107 64.8986C75.4394 64.8425 75.546 64.72 75.587 64.5576C75.755 62.8453 76.154 61.1595 76.9447 59.6168C77.4182 58.74 77.8494 57.8307 78.1548 56.8785C78.4004 56.1242 78.6167 55.2783 78.8169 54.5107C79.1998 53.2073 80.0212 52.0116 81.0735 51.1288L81.1027 51.1037C81.1027 51.1007 81.1422 51.0757 81.1129 51.0904C80.8206 51.2395 80.4874 51.5731 80.3296 51.7754C80.4567 51.4491 80.619 51.0609 80.749 50.7361C82.0352 48.0775 84.4496 46.2028 87.4486 46.1186C88.3036 46.1009 89.1586 46.3342 89.9112 46.7431C90.0311 46.8095 90.3044 46.9291 90.4169 46.994L90.5002 47.0368C90.5105 47.0427 90.5046 47.0383 90.5032 47.0368C90.3497 46.9423 90.1582 46.9217 89.9843 46.9645L88.5491 47.4413C90.4929 46.2913 92.884 45.9548 95.0017 46.6707C96.0189 46.8375 93.8646 46.5172 94.0619 46.5497L94.1555 46.5585C94.3119 46.5703 94.6129 46.6028 94.7664 46.6146C94.6012 46.6264 94.4332 46.6353 94.2724 46.6722C93.8822 46.7504 93.5022 46.9217 93.1821 47.1564L93.2245 47.1328C96.5202 45.3658 100.015 43.8232 103.828 43.4069C104.244 43.3685 104.677 43.37 105.093 43.3818C105.13 43.3818 105.156 43.3906 105.188 43.3951L105.558 43.4482C106.054 43.5132 106.543 43.5693 107.081 43.6047C107.482 43.6313 107.685 44.1465 107.391 44.4328C106.875 44.9598 106.226 45.385 105.595 45.7599C105.354 45.9356 105.111 46.1423 104.882 46.3283C102.701 48.2192 100.574 50.2711 98.3749 52.1695C97.9949 52.5016 97.6134 52.8308 97.2305 53.1585C96.5465 53.6516 95.7135 53.938 94.8731 53.969C94.6378 53.9749 94.2958 54.0192 94.059 54.0369C94.2695 54.0694 92.1225 53.7667 93.0316 53.8952C92.9073 53.9483 92.8123 54.0384 92.7787 54.1136C92.6984 54.1594 92.4601 54.3114 92.39 54.3513C89.4465 55.3212 91.6665 54.6052 90.8554 54.8429C89.4392 55.0274 87.9674 54.7454 86.7208 54.0398C86.5673 53.9527 86.2999 53.8022 86.1493 53.7121L86.1084 53.6885L86.0879 53.6767C86.4767 53.8863 87.0014 54.0044 87.4559 53.9911C87.3682 53.9025 87.2542 53.8405 87.1125 53.8154C86.9225 53.8863 86.7398 53.966 86.5556 54.062C86.3656 54.1579 86.1742 54.2731 85.9973 54.3971L85.7196 54.6569C85.5633 54.8001 85.344 55.0141 85.192 55.1529C84.9143 55.5278 84.5533 55.8688 84.1427 56.1021C84.1017 56.1257 84.1251 56.108 84.1134 56.1139C83.7773 56.1109 83.4689 56.198 83.1591 56.384C83.0495 56.4622 82.9735 56.4932 82.8843 56.6187C82.6797 56.8667 82.4722 57.1162 82.2748 57.3686C81.9986 57.7096 81.566 58.2676 81.2927 58.6249L79.3708 61.065C78.8768 61.7485 78.548 62.5618 78.4135 63.4033C78.3478 63.7753 78.3273 64.41 78.3098 64.7953C78.2586 66.0013 77.4986 67.1838 76.4171 67.7447C75.7901 69.7287 77.2239 65.0654 77.0879 65.5541L77.104 65.5777C78.3975 67.4037 79.1838 69.4999 79.3226 71.7909C79.422 72.7829 79.5667 73.8133 79.6807 74.826C79.7844 75.7707 79.8794 76.7081 80.046 77.6292C80.4143 79.8922 81.0633 82.201 81.5952 84.4477L81.6406 84.6322L81.6625 84.7252L81.6742 84.771L81.68 84.7946C81.6435 84.3134 81.4447 83.8454 81.1203 83.4823L81.0501 83.4055L81.0136 83.3686C81.0048 83.3598 81.0077 83.3627 81.0077 83.3612C81.0472 83.3273 81.072 83.2638 81.0589 83.2122V83.2062V83.2033C81.0618 83.2033 81.0516 83.2018 81.0662 83.2033C82.1141 83.3524 83.1123 83.8056 83.9234 84.4935C84.5621 84.9895 85.2329 85.5327 85.876 86.0198C86.2253 86.2841 86.5746 86.5838 86.9225 86.8495C87.4004 87.2333 87.9733 87.6628 88.4015 88.0289C88.2934 87.9566 88.175 87.9005 88.0522 87.8621C87.9791 87.8356 88.0902 87.8843 88.1355 87.9064L88.3065 87.9861C89.1337 88.3596 89.9405 88.7877 90.7633 89.17C92.1634 89.8077 93.6279 90.3141 95.1391 90.6521C96.8184 90.9975 98.5298 91.3872 100.14 91.963C101.768 92.4678 103.398 93.1911 104.825 94.1433C105.039 94.1669 103.027 94.006 103.892 94.0739H103.92C105.057 94.1211 106.209 94.3632 107.251 94.8046C107.767 95.0172 108.255 95.2947 108.718 95.5973C108.939 95.7361 109.006 96.0284 108.869 96.2513C108.795 96.3694 108.679 96.4432 108.554 96.4668V96.4697Z" fill="#0E460C"/>
<path d="M107.24 43.5767C107.267 43.1988 107.311 42.4016 107.335 42.0296C107.365 41.6916 107.414 41.1321 107.445 40.7941C107.476 40.4781 107.533 40.0397 107.591 39.7268C107.615 39.6042 107.71 38.9946 107.824 39.3799C107.916 39.6899 108.015 40.118 108.056 40.4649C108.119 40.9638 108.168 41.6133 108.231 42.1138C108.242 42.2112 108.266 42.4238 108.29 42.5153C108.328 42.7264 108.383 42.7677 108.421 42.5123C108.436 42.4031 108.453 42.3175 108.465 42.1994C108.493 41.882 108.553 41.2399 108.582 40.9225C108.605 40.6937 108.623 40.3881 108.67 40.1637C108.711 39.8803 108.779 40.115 108.816 40.2552C108.833 40.3379 108.858 40.5003 108.874 40.5889C108.899 40.7114 108.92 40.9682 108.933 41.0981C108.955 41.3447 109.007 41.8185 109.021 42.0577C109.051 42.7898 109.152 43.7376 109.108 44.4653C109.075 44.982 109.04 45.8367 108.991 46.3445C108.958 46.6427 108.924 47.1608 108.874 47.4546C108.847 47.6081 108.819 47.8384 108.757 47.9698C108.709 48.0731 108.684 47.9727 108.67 47.8783C108.624 47.6524 108.605 47.3498 108.582 47.1195C108.553 46.8006 108.494 46.1615 108.465 45.8426C108.453 45.7245 108.436 45.6389 108.421 45.5296C108.382 45.2654 108.326 45.3259 108.29 45.5267C108.266 45.6197 108.242 45.8323 108.231 45.9282C108.198 46.2043 108.141 46.7667 108.114 47.0442C108.079 47.4221 108.033 47.8443 107.94 48.2074C107.857 48.5263 107.765 49.1684 107.62 48.4732C107.48 47.7764 107.422 46.9719 107.359 46.2618C107.35 46.1526 107.334 46.0005 107.33 45.8928C107.296 45.1872 107.198 44.2823 107.242 43.5796L107.24 43.5767Z" fill="#0E460C"/>
<path d="M108.196 59.949C106.438 59.1666 104.408 57.7982 103.948 55.9663C103.778 55.0687 104.382 54.2642 104.741 53.4774C105.272 52.3334 107.819 51.4344 107.226 49.9922C106.894 49.2673 105.473 48.6149 104.974 48.0008C104.408 47.3778 104.776 46.6279 105.213 46.0094C105.978 45.0824 106.85 44.5598 108.195 44.018C108.489 43.9059 108.8 43.9132 109.072 44.018C110.416 44.5583 111.29 45.0809 112.053 46.0094C112.492 46.6265 112.858 47.3793 112.293 48.0008C111.615 48.8658 109.333 49.5729 110.105 50.9871C110.484 51.7045 111.631 52.3585 112.163 52.9785C112.457 53.287 112.597 53.6132 112.777 53.9734C112.94 54.3056 113.119 54.6377 113.231 54.9684C113.491 55.6725 113.298 56.3279 112.901 56.9597C112.401 57.7451 111.733 58.3695 110.887 58.9511C110.384 59.2832 109.842 59.6154 109.072 59.9461C108.781 60.0715 108.464 60.0612 108.195 59.9461L108.196 59.949Z" fill="#0E460C"/>
<path d="M108.196 96.0343C107.379 95.9339 106.532 95.8158 105.731 95.6387C105.361 95.559 105.058 95.4852 104.721 95.3744C104.442 95.2682 104.132 95.184 103.946 94.9788C103.791 94.7412 104.307 94.5699 104.49 94.4518C104.661 94.3633 104.788 94.2762 105.115 94.1876C105.628 94.037 106.26 93.9366 106.774 93.792C107.378 93.6326 107.585 93.4421 106.836 93.265C106.501 93.1823 105.893 93.0716 105.528 93.0007C105.368 92.9697 105.186 92.921 105.026 92.8856C104.855 92.8251 104.575 92.766 104.724 92.6051C104.807 92.5166 104.955 92.4295 105.218 92.3409C105.473 92.2523 105.798 92.1652 106.299 92.0767C106.521 92.0279 106.913 91.9777 107.142 91.9453C107.758 91.8611 108.449 91.743 109.072 91.8139C109.976 91.9128 111.264 92.0722 112.047 92.3409C112.293 92.4221 112.664 92.5933 112.565 92.7365C112.426 92.8708 112.033 92.9255 111.822 92.983C111.422 93.0613 110.801 93.1735 110.429 93.2635C109.522 93.4835 110.074 93.6842 110.606 93.8245C111.081 93.9425 111.68 94.0518 112.151 94.1876C112.63 94.3308 112.886 94.5035 113.231 94.7146C113.559 94.9655 113.12 95.1427 112.895 95.2416C112.663 95.3434 112.356 95.4379 112.097 95.5058C111.461 95.6712 110.709 95.8099 110.048 95.9014C109.455 95.9856 108.793 96.1111 108.195 96.0328L108.196 96.0343Z" fill="#0E460C"/>
</g>
<path d="M114.213 166.429C114.339 166.225 114.413 165.978 114.345 165.755C114.337 165.746 114.337 165.694 114.337 165.652L114.333 165.521C114.304 164.563 114.313 163.599 114.327 162.645C114.345 161.787 114.375 160.915 114.42 160.06L114.423 159.996C114.36 159.886 114.25 159.815 114.145 159.83C114.01 159.582 113.829 159.349 113.639 159.151C113.022 158.488 112.231 158.087 111.396 158.045C110.813 157.94 110.179 157.734 109.614 157.489C108.45 156.986 107.377 156.177 106.445 155.227C105.357 154.144 104.391 152.899 103.576 151.538C103.173 150.793 102.696 150.135 102.094 149.592C101.152 148.68 100.552 147.335 100.441 145.932C100.413 145.687 100.463 145.484 100.388 145.236C100.148 144.933 99.8636 144.564 99.6248 144.26C99.1231 143.65 98.7016 142.939 98.3934 142.188C97.8397 140.834 97.6303 139.347 97.7984 137.9C97.9518 136.976 98.248 135.311 98.4147 134.377C98.7576 132.442 99.1258 130.281 99.3539 128.334C99.4046 127.661 99.5634 126.989 99.8756 126.41C100.705 124.953 101.987 123.877 103.43 123.364L103.562 123.317C103.579 123.311 103.566 123.315 103.571 123.312H103.572H103.582C103.595 123.298 103.584 123.274 103.57 123.279C103.223 122.943 102.863 122.566 102.476 122.272C101.351 121.358 100.129 120.805 98.799 120.435C97.6796 120.089 96.4603 119.739 95.3316 119.432C95.1809 119.387 94.8313 119.295 94.6886 119.262C94.259 119.19 93.8108 119.195 93.4105 119.28C92.1591 119.503 90.9731 120.602 90.5556 121.909C90.4528 122.202 90.3901 122.503 90.3501 122.811L90.0179 124.723C89.8485 125.669 89.575 127.279 89.4109 128.2C89.3869 128.313 89.3762 128.438 89.3629 128.551C89.2842 129.295 89.2975 130.039 89.4149 130.773C89.4269 130.852 89.4549 131.125 89.4656 131.21C89.7804 134.296 89.6617 137.432 89.1708 140.487C88.7252 143.327 87.83 146.022 86.9802 148.721C86.3238 150.846 85.5113 152.937 84.5027 154.873C83.4074 156.98 82.1 158.951 80.6125 160.7C79.077 162.455 77.2893 164.334 75.6577 165.97C75.0467 166.579 74.2168 167.39 73.5831 167.978L73.4951 168.06L73.4724 168.081C73.4671 168.086 73.4671 168.081 73.4644 168.081C73.4417 168.074 73.415 168.075 73.391 168.078C73.3497 168.086 73.3043 168.109 73.2656 168.147L73.2149 168.445C73.0135 168.528 72.7947 168.607 72.5826 168.668C72.2931 168.758 71.9956 168.627 71.8261 168.368C71.6901 168.17 71.566 167.953 71.4513 167.746L71.4006 168.045C71.3539 167.519 71.4753 166.966 71.7127 166.505C71.9249 165.932 72.2877 165.085 72.5199 164.503C73.1135 163.078 73.8953 161.317 74.545 159.906C75.587 157.694 76.7476 155.394 77.5241 153.062C78.1044 151.391 78.57 149.705 78.9275 147.97C79.2904 146.127 79.6626 144.083 80.0735 142.217C80.7913 138.84 81.2249 135.404 81.2235 131.929C81.1475 130.118 81.2702 128.295 81.7065 126.549C81.8586 125.912 82.116 125.105 82.2935 124.477C82.583 123.509 83.15 121.531 83.4381 120.56C84.5214 116.637 87.7219 113.646 91.2706 113.276C93.021 113.062 94.85 113.481 96.3816 114.433C97.3301 115.078 98.332 115.755 99.2872 116.377C99.7969 116.691 100.357 117.073 100.88 117.385C102.328 118.305 103.626 119.413 104.796 120.713C104.966 120.889 105.143 121.12 105.308 121.306C105.82 121.909 106.079 122.781 105.982 123.611C105.883 124.613 105.272 125.507 104.453 125.874C104.099 126.01 103.743 126.161 103.436 126.407C102.98 126.759 102.614 127.236 102.374 127.79C102.344 127.856 102.346 127.87 102.338 127.902C102.333 127.931 102.329 127.959 102.326 127.987C102.313 128.097 102.337 128.18 102.356 128.287C102.502 130.289 102.78 132.503 103.049 134.502C103.179 135.452 103.402 137.122 103.516 138.055C103.52 138.11 103.528 138.109 103.535 138.124L103.554 138.161L103.592 138.231C103.763 138.512 103.97 138.665 104.233 138.736C104.492 138.945 104.797 139.23 105.052 139.446C106.563 140.854 107.516 143.145 107.621 145.212C107.591 144.499 107.246 143.751 106.786 143.332L106.816 143.361L106.876 143.419C107.865 144.392 108.705 145.563 109.35 146.858C109.847 147.908 110.428 148.902 111.106 149.813C111.529 150.404 112.039 151.023 112.654 151.375C112.91 151.541 113.282 151.653 113.565 151.81C115.943 152.989 117.723 155.486 118.235 158.377C118.408 159.291 118.346 160.218 118.061 161.078L118.035 161.135L117.837 161.599C117.298 162.84 116.732 164.065 116.122 165.268C116.001 165.533 115.842 165.798 115.713 166.06C115.587 166.319 115.427 166.633 115.226 166.803C115.095 166.947 114.89 167.061 114.739 167.122C114.365 167.294 114.016 166.813 114.217 166.429H114.213Z" fill="#0E460C"/>
<path d="M100.94 138.342C101.474 139.267 102.69 141.698 101.953 142.333C101.869 142.373 101.751 142.373 101.6 142.333C101.307 142.266 100.853 142.018 100.445 141.822C100.023 141.61 99.6552 141.457 99.4404 141.482C98.9295 141.546 99.1669 142.342 99.2737 142.708C99.3617 143.014 99.4925 143.371 99.5792 143.665C99.6232 143.822 99.7166 144.097 99.742 144.256C99.8207 144.58 99.7993 144.81 99.7847 145.113C99.7727 145.369 99.7686 145.634 99.7233 145.852C99.5031 147.122 97.1417 145.95 96.4546 145.553C96.1397 145.369 95.7955 145.171 95.4886 144.955C95.1804 144.763 94.8682 144.498 94.7014 144.155C94.1144 143.063 92.9683 140.594 93.3793 139.404C93.5674 138.976 94.057 139.031 94.4386 138.997C94.7041 138.981 94.9056 138.958 95.1898 139.048C95.3258 139.075 95.5687 139.182 95.7074 139.235C95.9649 139.336 96.2771 139.485 96.5453 139.585C96.8641 139.707 97.5633 139.981 97.6193 139.398C97.6406 139.153 97.5086 138.731 97.3231 138.25C97.1523 137.783 96.9349 137.266 96.8775 136.93C96.8441 136.758 96.8455 136.623 96.8788 136.528C97.1924 135.988 98.2383 136.409 98.7854 136.685C99.2216 136.915 99.6953 137.186 100.373 137.69C100.604 137.863 100.796 138.09 100.939 138.338L100.94 138.342Z" fill="#0E460C"/>
<path d="M85.6931 133.209C86.9765 132.511 89.1299 131.797 90.0451 133.032C90.4734 133.981 89.6302 135.636 89.9104 136.601C90.38 138.026 92.5988 136.773 93.6101 137.168C94.3118 137.444 95.1844 137.549 95.6193 138.295C95.9716 138.95 96.0463 139.736 96.0263 140.565C95.9742 141.788 95.7434 142.853 95.2684 144.163C95.155 144.464 94.9469 144.688 94.7014 144.809C93.2192 145.488 91.8836 145.858 90.4321 145.575C89.7983 145.435 89.2793 145.13 89.0218 144.449C88.8951 144.137 88.811 143.779 88.7176 143.43C88.6149 143.046 88.5108 142.72 88.5148 142.294C88.4855 141.48 88.835 140.186 88.6469 139.41C88.4148 138.457 87.6636 138.545 86.8391 138.738C85.4556 139.054 84.6244 139.352 84.3976 137.422C84.3349 136.204 84.5884 135.214 85.1274 133.858C85.2501 133.563 85.4542 133.342 85.6944 133.212L85.6931 133.209Z" fill="#0E460C"/>
<g clip-path="url(#clip2_71_11596)">
<path d="M157.583 169.435C157.584 168.652 157.586 169.213 157.588 169.036L157.593 169.027C157.813 168.634 158.052 168.218 158.248 167.815C158.521 167.288 158.833 166.485 158.992 166.048C159.115 165.734 159.207 165.49 159.331 165.297C159.404 165.221 159.536 165.121 159.625 165.052C160.239 164.592 160.987 164.32 161.75 164.287C161.791 164.279 161.83 164.283 161.872 164.294C161.969 164.318 162.073 164.384 162.202 164.486C162.451 164.679 162.825 165.03 163.279 165.255C164.233 165.777 165.303 165.41 165.311 164.207C165.403 163.37 165.441 162.504 165.643 161.667C165.709 161.402 165.789 161.138 165.892 160.884C165.989 160.554 166.1 160.226 166.251 159.939C166.616 159.283 166.963 158.592 167.371 157.971C168.676 155.962 171.639 155.31 173.904 155.445C175.55 155.584 175.589 155.574 175.651 157.305C175.69 159.625 174.932 162.623 172.914 163.875C172.502 164.138 172.051 164.362 171.61 164.593C171.15 164.833 170.726 165.08 170.21 165.21C170.146 165.227 170.074 165.25 170.015 165.256H169.858C169.18 165.256 168.418 165.272 167.814 165.632C167.674 165.743 167.54 165.864 167.415 165.978C166.975 166.375 166.566 166.789 166.229 167.282C165.84 167.846 165.557 168.481 165.199 169.079C164.54 170.251 163.452 171.28 162.057 171.312H162.039H162.03C162.116 171.308 162.204 171.302 162.291 171.289C162.811 171.228 163.429 170.914 163.751 170.595C163.134 171.041 162.424 171.353 161.68 171.479C160.176 171.758 158.466 171.184 157.598 169.843L157.591 169.834C157.589 169.657 157.588 170.218 157.585 169.435H157.583Z" fill="#0E460C"/>
<path d="M141.5 120.409C140.69 120.379 139.875 120.49 139.143 120.833C140.406 122.004 137.414 119.242 137.72 119.521L137.711 119.499L137.692 119.455L137.616 119.277L137.597 119.233C137.59 119.221 137.585 119.22 137.579 119.212C137.396 119.01 137.121 118.874 136.855 118.914L136.831 118.901L136.783 118.872C136.294 118.583 135.75 118.17 135.295 117.826C134.613 117.316 133.947 116.787 133.298 116.238C131.776 115.352 135.233 117.337 134.902 117.145C134.945 117.216 135.011 117.259 135.091 117.289C135.205 117.327 135.353 117.31 135.477 117.24L135.487 117.233C135.491 117.229 135.486 117.237 135.481 117.243L135.468 117.263C135.414 117.337 135.216 117.636 135.155 117.719C135.102 117.791 134.941 118.036 134.893 118.098L134.88 118.116C134.88 118.117 134.873 118.126 134.876 118.121C135.643 117.232 135.74 115.837 135.11 114.841C135.013 114.68 134.898 114.533 134.771 114.396C135.315 114.599 129.856 112.466 132.179 113.369C133.339 113.27 134.529 113.464 135.595 113.949C136.846 114.512 137.922 115.481 138.615 116.686C138.863 117.132 139.068 117.601 139.273 118.07C139.324 118.185 139.385 118.338 139.438 118.449C140.125 119.927 140.357 121.597 140.14 123.204C139.869 124.559 139.592 125.906 139.433 127.271C139.23 128.636 139.323 130.015 139.808 131.305L139.815 131.325C139.798 130.673 139.841 132.223 139.835 132.067C139.382 133.644 139.347 135.34 139.736 136.93C139.749 136.981 139.763 137.057 139.774 137.053C139.829 137.12 139.902 137.15 139.974 137.185C140.318 137.67 140.671 138.15 141.023 138.63C142.105 140.045 142.812 141.856 143.022 143.658C141.214 148.131 142.524 144.897 142.12 145.894C142.338 145.807 142.506 145.616 142.587 145.36L142.599 145.317L142.601 145.307C142.601 145.307 142.601 145.293 142.604 145.307C142.622 145.499 142.651 145.716 142.666 145.909L142.733 146.65C142.894 148.414 141.621 149.975 139.895 150.133L139.269 150.19C139.104 150.206 138.663 150.246 138.505 150.26C140.079 148.677 134.976 153.805 142.033 146.71V146.724L142.034 146.782C142.092 148.705 141.518 150.641 140.437 152.221C140.311 152.43 139.857 153.124 139.733 153.323L139.698 153.379L139.688 153.401L139.667 153.447L139.629 153.536C139.597 153.614 139.573 153.692 139.546 153.773C139.211 154.25 140.298 152.707 138.792 154.843C137.641 156.172 136.392 157.457 135.108 158.653L135.007 158.746L134.957 158.791C136.11 157.58 135.735 155.46 134.197 154.808L134.205 154.812L134.219 154.821L134.276 154.857L134.391 154.931C135.238 155.484 136.137 156.086 136.969 156.671C137.869 157.295 138.301 158.363 138.178 159.396C138.14 159.712 138.095 160.029 138.052 160.345L134.939 156.858C135.151 156.905 135.361 156.97 135.575 157.009C136.84 157.193 138.023 157.962 138.707 159.059C138.988 159.508 139.207 160.009 139.303 160.526C139.431 161.714 139.529 162.912 139.591 164.111L139.619 164.701L139.621 164.775V164.812C139.609 164.809 139.591 164.808 139.577 164.807C139.4 164.79 139.268 164.989 139.309 165.162C139.316 165.177 139.297 165.19 139.357 165.217L139.868 165.513L139.063 165.552C139.202 165.548 139.344 165.544 139.484 165.542C140.398 165.425 141.375 165.675 142.043 166.326L141.201 166.638C141.307 166.549 141.413 166.46 141.524 166.373C141.632 166.285 141.744 166.2 141.856 166.113C142.039 165.973 142.298 166.009 142.437 166.196C142.505 166.287 142.53 166.398 142.518 166.502C142.487 166.784 142.45 167.065 142.404 167.344C142.375 167.525 142.222 167.654 142.049 167.654H141.562C141.108 167.619 140.635 167.786 140.362 168.162C140.356 168.169 140.358 168.171 140.346 168.179L140.316 168.202L140.253 168.248C140.171 168.309 140.088 168.371 140.004 168.43L139.199 168.469C139.002 168.475 138.589 168.526 138.389 168.49C137.045 168.335 135.852 167.338 135.332 166.04C134.644 164.808 133.989 163.544 133.383 162.272L133.368 162.239C133.366 162.236 133.362 162.222 133.362 162.229C133.372 162.303 133.39 162.377 133.409 162.45C133.597 163.126 134.188 163.659 134.868 163.791C133.255 164.075 131.608 163.137 131.336 161.32L131.2 160.341C131.155 160.025 131.112 159.708 131.074 159.392L133.037 162.639C132.286 162.374 131.542 162.093 130.8 161.806L130.785 161.8L130.778 161.797L130.751 161.784L130.645 161.729C128.552 160.687 127.359 158.206 127.781 155.867C127.968 154.701 128.576 153.63 129.382 152.791C130.346 151.711 131.382 150.641 132.432 149.657C132.638 149.462 132.873 149.246 133.083 149.054L133.109 149.03L133.111 149.028C131.607 151.161 132.697 149.615 132.361 150.09C132.37 150.072 132.478 149.875 132.491 149.852C132.774 149.359 133.095 148.89 133.456 148.453L133.503 148.4L134.232 147.578C134.277 147.526 134.346 147.451 134.388 147.404C134.667 147.21 134.87 146.916 134.968 146.582C142.028 139.485 136.928 144.615 138.504 143.032C138.566 143.038 138.666 143.046 138.727 143.053L139.268 143.102L135.805 146.642L135.872 145.901C135.889 145.709 135.914 145.493 135.935 145.299C135.989 143.978 136.53 142.682 137.403 141.759C137.509 141.646 137.618 141.538 137.733 141.435C137.334 142.427 138.655 139.19 136.844 143.653C137.041 142.858 137.112 142.035 137.033 141.206C136.92 140.442 136.701 139.544 136.542 138.765C136.392 138.29 136.321 137.787 136.343 137.292C136.406 136.581 136.534 135.907 136.662 135.218C136.893 134.02 137.183 132.864 137.534 131.718L137.593 131.529L137.621 131.44L137.634 131.396L137.637 131.386C137.636 131.223 137.672 132.764 137.654 132.106C137.14 130.584 136.782 128.988 136.475 127.411C136.208 126.176 135.847 124.972 135.477 123.756L135.422 123.574L135.394 123.483L135.38 123.437C135.088 122.783 134.618 122.221 134.093 121.776C133.75 121.382 133.411 120.976 133.095 120.56L133.039 120.486C133.031 120.477 133.016 120.455 133.015 120.456L133.007 120.453C132.844 120.405 132.725 120.304 132.569 120.236C134.885 121.142 129.418 119.006 129.959 119.201L129.909 119.147L129.812 119.036C128.911 117.988 128.614 116.453 129.049 115.132C129.211 114.634 129.464 114.171 129.797 113.775L129.812 113.758L129.875 113.69L130.129 113.425L130.766 112.762C131.926 111.586 133.563 110.997 135.164 111.162C135.423 111.189 135.679 111.238 135.932 111.301C135.587 111.099 139.039 113.073 137.58 112.242L137.587 112.251L137.599 112.271C138.159 113.14 138.706 114.035 139.199 114.948C139.324 115.206 139.46 115.461 139.606 115.712C139.681 115.819 139.769 115.916 139.84 116.025C140.433 116.87 140.739 117.935 140.61 118.963L140.569 119.153L140.559 119.201L140.554 119.225C140.858 119.515 137.879 116.746 139.147 117.919C139.639 118.051 140.125 118.256 140.555 118.52C141.056 118.83 141.497 119.218 141.838 119.701C142.057 119.978 141.841 120.41 141.499 120.399L141.5 120.409Z" fill="#0E460C"/>
<path d="M157.583 113.008C157.583 113.79 157.581 113.23 157.58 113.407C157.558 113.494 157.548 113.589 157.551 113.677C157.56 113.889 157.632 114.069 157.777 114.213C157.801 114.244 157.847 114.253 157.834 114.303V114.546C157.826 115.236 157.682 116.064 157.429 116.61C157.088 117.321 156.612 118.048 155.777 118.021C154.446 117.973 152.981 116.908 151.839 118.247C151.282 118.884 150.816 120.148 150.373 120.858C150.148 121.228 149.86 121.473 149.559 121.755C149.275 122.02 148.996 122.297 148.697 122.519C147.514 123.425 145.909 123.011 144.63 122.453C144.247 122.419 143.849 122.335 143.5 122.169C143.322 122.081 143.137 121.99 142.992 121.856C142.821 121.625 142.605 121.314 142.456 121.064C142.365 120.912 142.273 120.754 142.188 120.586C141.885 119.965 142.438 119.404 142.723 118.909L142.992 118.536C143.007 118.52 143.003 118.505 143.007 118.489L143.012 118.442C143.05 118.167 142.981 117.896 142.861 117.659C143.14 117.025 143.536 116.389 143.968 115.912C144.49 115.326 145.098 114.919 145.871 114.864C146.24 114.831 146.629 114.849 147.013 114.857C147.421 114.866 147.795 114.854 148.203 114.981C149.011 115.162 149.878 115.932 150.687 115.906C151.482 115.881 151.767 115.314 151.852 114.569C152.015 113.735 151.936 112.737 152.494 112.132C153.419 111.375 154.759 111.498 155.89 111.878C155.998 111.914 156.218 111.996 156.324 112.042C156.348 112.065 156.43 112.048 156.493 112.056C156.887 112.076 157.281 112.223 157.528 112.544L157.555 112.58L157.567 112.598L157.574 112.607C157.576 112.784 157.578 112.224 157.58 113.007L157.583 113.008Z" fill="#0E460C"/>
<path d="M175.759 102.156C176.395 102.59 175.938 102.28 176.082 102.378L176.088 102.385L176.101 102.397C176.116 102.411 176.158 102.453 176.175 102.467C176.739 103 177.512 103.792 177.876 104.396C178.012 104.617 178.162 104.956 178.002 105.058C177.951 105.094 177.788 105.084 177.666 105.064C177.524 105.037 177.36 104.999 177.22 104.958C176.562 104.793 174.818 104.119 175.849 105.371C176.01 105.556 176.316 105.887 176.485 106.068C176.63 106.221 176.823 106.427 176.935 106.598C177.022 106.715 177.079 106.858 177.141 106.986C177.245 107.22 177.505 107.62 177.249 107.824C176.725 108.161 175.485 107.921 174.87 107.798C174.67 107.763 174.347 107.675 174.149 107.623C173.899 107.557 173.56 107.471 173.312 107.388C172.905 107.273 172.574 106.992 172.263 106.734C172.05 106.545 171.726 106.28 171.519 106.088C171.22 105.807 170.87 105.458 170.616 105.154C170.389 104.882 170.153 104.559 170.034 104.238C169.888 103.836 170.139 103.738 170.472 103.639C170.782 103.556 171.08 103.443 171.409 103.467C171.535 103.464 171.779 103.502 171.912 103.521C172.161 103.561 172.603 103.625 172.848 103.662C173.974 103.798 173.627 103.288 173.001 102.592C172.841 102.411 172.689 102.233 172.535 102.052C172.46 101.958 172.367 101.835 172.299 101.734C172.228 101.62 172.158 101.467 172.172 101.392C172.209 101.167 172.588 101.117 172.864 101.13C173.576 101.158 174.608 101.552 175.317 101.882C175.339 101.891 175.39 101.916 175.41 101.923L175.425 101.93L175.433 101.934C175.577 102.031 175.122 101.721 175.759 102.153V102.156Z" fill="#0E460C"/>
<path d="M142.19 120.451C142.178 121.115 142.165 121.976 142.142 122.635C142.133 122.909 142.124 123.269 142.094 123.537C142.091 123.55 142.089 123.568 142.086 123.575C142.084 123.58 142.081 123.576 142.079 123.557C142.076 123.542 142.073 123.512 142.071 123.457L142.063 123.307C142.044 122.76 142.025 121.857 141.998 121.319C141.984 121.116 141.968 121.33 141.965 121.385C141.934 121.951 141.918 122.801 141.892 123.372C141.879 123.6 141.855 123.945 141.834 124.147C141.823 124.256 141.813 124.29 141.801 124.23C141.783 124.123 141.776 123.956 141.768 123.841C141.714 122.877 141.692 121.427 141.67 120.452C141.665 119.166 141.708 117.565 141.768 116.283C141.776 116.17 141.782 116.002 141.801 115.894C141.813 115.834 141.823 115.868 141.834 115.977C141.855 116.179 141.878 116.523 141.892 116.752C141.918 117.325 141.934 118.172 141.965 118.739C141.968 118.794 141.983 119.008 141.998 118.805C142.03 118.203 142.042 117.273 142.072 116.668C142.075 116.61 142.077 116.58 142.08 116.566C142.087 116.517 142.092 116.569 142.096 116.586C142.143 117.02 142.143 117.575 142.161 118.017C142.176 118.778 142.203 119.693 142.194 120.452L142.19 120.451Z" fill="#0E460C"/>
<path d="M175.292 156.263C175.255 156.814 175.208 157.404 175.147 157.949C175.11 158.279 175.052 158.695 174.984 158.995C174.955 159.107 174.914 159.267 174.857 159.349C174.833 159.383 174.809 159.407 174.784 159.37C174.763 159.339 174.744 159.266 174.73 159.214C174.628 158.686 174.571 158.011 174.494 157.474C174.47 157.316 174.394 156.771 174.268 157.212C174.156 157.693 174.099 158.3 174.024 158.794C173.958 159.248 173.84 159.612 173.698 159.963C173.45 160.522 173.219 158.616 173.191 158.454C173.132 158.036 173.083 157.551 173.046 157.13C173 156.606 172.93 156.003 172.973 155.481C173.028 154.767 173.093 153.997 173.191 153.288C173.22 153.106 173.452 151.226 173.698 151.78C173.84 152.13 173.958 152.495 174.024 152.949C174.065 153.239 174.127 153.701 174.169 153.99C174.194 154.155 174.23 154.401 174.277 154.558C174.45 155.128 174.542 153.794 174.567 153.699C174.598 153.454 174.655 152.963 174.694 152.724C174.706 152.643 174.725 152.54 174.749 152.464C174.77 152.386 174.8 152.304 174.857 152.394C174.914 152.477 174.955 152.635 174.984 152.747C175.02 152.898 175.044 153.054 175.074 153.25C175.114 153.482 175.146 153.791 175.174 154.028C175.23 154.754 175.336 155.529 175.292 156.26V156.263Z" fill="#0E460C"/>
<path d="M157.964 113.008C159.933 116.177 160.742 119.914 160.983 123.588C161.066 124.772 161.023 125.946 160.767 127.115C160.528 128.29 160.085 129.465 159.684 130.642C159.064 132.391 158.67 134.109 158.731 135.932C158.753 137.12 158.913 138.296 159.19 139.459C159.611 141.226 160.272 142.988 160.654 144.749C160.906 145.774 161.056 147.223 161.188 148.276C161.479 150.618 161.787 152.968 161.661 155.329C161.456 158.936 160.754 162.489 159.544 165.909C159.099 167.119 158.62 168.296 157.964 169.436C157.803 169.726 157.361 169.729 157.201 169.436C156.856 168.849 156.583 168.261 156.321 167.673C154.308 162.97 153.13 156.913 153.58 151.803C153.68 150.628 153.833 149.451 153.976 148.276C154.112 147.213 154.258 145.779 154.51 144.749C154.892 142.986 155.553 141.226 155.974 139.459C156.709 136.408 156.583 133.605 155.48 130.642C154.869 128.896 154.245 127.186 154.16 125.352C154.09 122.354 154.568 119.394 155.536 116.535C155.974 115.308 156.471 114.134 157.201 113.008C157.375 112.736 157.79 112.735 157.964 113.008Z" fill="#0E460C"/>
<path d="M173.356 107.211C175.277 109.862 176.138 113.12 176.377 116.335C176.459 117.359 176.415 118.371 176.161 119.376C175.921 120.39 175.479 121.404 175.077 122.416C174.46 123.921 174.063 125.39 174.124 126.978C174.146 128.008 174.308 129.021 174.584 130.019C175.004 131.544 175.666 133.061 176.047 134.581C176.298 135.464 176.449 136.712 176.581 137.622C176.873 139.639 177.18 141.665 177.055 143.705C176.803 147.384 175.886 151.032 174.236 154.35C173.974 154.857 173.701 155.364 173.356 155.871C173.179 156.14 172.769 156.142 172.593 155.871C171.942 154.896 171.461 153.882 171.014 152.83C170.188 150.853 169.633 148.826 169.261 146.747C168.895 144.73 168.758 142.703 168.974 140.664C169.073 139.65 169.227 138.636 169.369 137.623C169.505 136.704 169.652 135.468 169.903 134.583C170.285 133.063 170.946 131.546 171.367 130.021C172.106 127.365 171.973 124.971 170.874 122.418C170.266 120.916 169.643 119.457 169.554 117.856C169.484 115.253 169.97 112.696 170.93 110.253C171.372 109.183 171.871 108.172 172.594 107.212C172.783 106.961 173.169 106.961 173.358 107.212L173.356 107.211Z" fill="#0E460C"/>
</g>
<g clip-path="url(#clip3_71_11596)">
<path d="M97.7185 244.113C97.7198 243.33 97.7224 243.891 97.7236 243.714L97.7287 243.705C97.9487 243.312 98.1878 242.896 98.3837 242.493C98.6571 241.966 98.9687 241.163 99.1277 240.726C99.251 240.412 99.3426 240.168 99.4672 239.975C99.5397 239.899 99.672 239.799 99.761 239.73C100.375 239.27 101.123 238.998 101.886 238.965C101.927 238.957 101.966 238.961 102.008 238.972C102.105 238.996 102.209 239.062 102.338 239.163C102.587 239.357 102.961 239.708 103.415 239.933C104.369 240.454 105.439 240.088 105.447 238.885C105.539 238.048 105.577 237.182 105.779 236.345C105.845 236.08 105.925 235.816 106.028 235.562C106.125 235.232 106.236 234.904 106.387 234.617C106.752 233.961 107.099 233.27 107.507 232.649C108.812 230.64 111.775 229.988 114.04 230.123C115.686 230.262 115.725 230.251 115.786 231.983C115.826 234.302 115.068 237.3 113.05 238.552C112.638 238.816 112.187 239.04 111.746 239.271C111.286 239.511 110.862 239.758 110.346 239.888C110.282 239.904 110.21 239.928 110.151 239.934H109.994C109.316 239.934 108.554 239.95 107.95 240.31C107.81 240.421 107.676 240.542 107.551 240.656C107.111 241.052 106.702 241.467 106.365 241.96C105.976 242.524 105.693 243.159 105.335 243.757C104.676 244.929 103.588 245.958 102.193 245.99H102.175H102.166C102.252 245.986 102.34 245.98 102.427 245.967C102.947 245.906 103.565 245.592 103.887 245.272C103.27 245.718 102.56 246.03 101.816 246.157C100.312 246.436 98.6024 245.861 97.7338 244.521L97.7274 244.512C97.7249 244.335 97.7236 244.895 97.7211 244.113H97.7185Z" fill="#0E460C"/>
<path d="M81.6358 195.087C80.8257 195.057 80.0105 195.168 79.2792 195.511C80.5421 196.682 77.5496 193.92 77.8561 194.199L77.8472 194.177L77.8281 194.133L77.7518 193.955L77.7327 193.91C77.7264 193.899 77.7213 193.897 77.7149 193.89C77.5318 193.688 77.2571 193.552 76.9913 193.592L76.9671 193.579L76.9188 193.55C76.4304 193.26 75.8861 192.848 75.4308 192.504C74.7492 191.994 74.0828 191.465 73.4342 190.916C71.9119 190.03 75.3685 192.015 75.0379 191.823C75.0811 191.894 75.1472 191.937 75.2273 191.967C75.3405 192.005 75.4893 191.988 75.6127 191.917L75.6229 191.911C75.6267 191.907 75.6216 191.915 75.6165 191.921L75.6038 191.941C75.5504 192.015 75.352 192.314 75.2909 192.397C75.2375 192.469 75.0773 192.714 75.029 192.776L75.0162 192.794C75.0162 192.795 75.0086 192.804 75.0124 192.799C75.7793 191.91 75.8759 190.515 75.2464 189.519C75.1485 189.358 75.034 189.211 74.9069 189.074C75.4512 189.277 69.9915 187.144 72.315 188.047C73.4749 187.948 74.6652 188.142 75.731 188.627C76.9824 189.19 78.0583 190.158 78.7514 191.364C78.9994 191.81 79.2042 192.279 79.4089 192.748C79.4598 192.863 79.5208 193.016 79.5742 193.127C80.261 194.605 80.4925 196.275 80.2763 197.882C80.0054 199.237 79.7281 200.584 79.5692 201.949C79.3657 203.314 79.4585 204.693 79.9443 205.983L79.9507 206.002C79.9342 205.351 79.9774 206.901 79.971 206.745C79.5183 208.322 79.4827 210.018 79.8718 211.608C79.8846 211.659 79.8985 211.734 79.91 211.731C79.9647 211.798 80.0384 211.828 80.1097 211.863C80.4543 212.348 80.8066 212.828 81.1589 213.308C82.2411 214.723 82.9482 216.534 83.1581 218.336C81.3496 222.809 82.6595 219.575 82.2564 220.572C82.4739 220.485 82.6417 220.294 82.7231 220.038L82.7346 219.995L82.7371 219.985C82.7371 219.985 82.7371 219.97 82.7397 219.985C82.7575 220.177 82.7867 220.394 82.802 220.587L82.8694 221.328C83.0296 223.092 81.7566 224.653 80.0308 224.811L79.4051 224.868C79.2398 224.883 78.7985 224.924 78.6408 224.938C80.2152 223.355 75.1116 228.483 82.1686 221.388V221.402L82.1699 221.46C82.2284 223.383 81.6536 225.319 80.5726 226.899C80.4467 227.108 79.9927 227.802 79.8693 228.001L79.8337 228.057L79.8235 228.079L79.8032 228.125L79.765 228.214C79.7332 228.292 79.709 228.37 79.6823 228.451C79.3466 228.928 80.434 227.385 78.9282 229.521C77.7772 230.849 76.5284 232.135 75.2439 233.331L75.1434 233.424L75.0925 233.469C76.246 232.257 75.8709 230.138 74.3333 229.486L74.3409 229.49L74.3549 229.499L74.4121 229.535L74.5266 229.609C75.3736 230.162 76.2727 230.764 77.1045 231.349C78.0049 231.973 78.4373 233.041 78.3139 234.074C78.2758 234.39 78.2313 234.707 78.188 235.023L75.0747 231.536C75.2871 231.583 75.497 231.648 75.7106 231.687C76.976 231.871 78.1588 232.64 78.843 233.737C79.124 234.185 79.3428 234.687 79.4394 235.203C79.5666 236.392 79.6645 237.59 79.7269 238.789L79.7548 239.379L79.7574 239.453V239.49C79.7447 239.487 79.7269 239.486 79.7129 239.485C79.5361 239.468 79.4038 239.667 79.4445 239.839C79.4522 239.855 79.4331 239.868 79.4928 239.895L80.0041 240.19L79.1991 240.229C79.3377 240.226 79.4801 240.222 79.62 240.22C80.5344 240.103 81.5111 240.353 82.1788 241.004L81.3369 241.316C81.4425 241.227 81.5493 241.138 81.6599 241.051C81.768 240.963 81.88 240.878 81.9919 240.791C82.175 240.651 82.4344 240.687 82.5731 240.874C82.6405 240.965 82.6659 241.076 82.6545 241.18C82.6227 241.462 82.5858 241.743 82.54 242.022C82.5107 242.203 82.3581 242.332 82.1852 242.332H81.6981C81.2441 242.297 80.771 242.464 80.4975 242.84C80.4925 242.847 80.4937 242.849 80.4823 242.857L80.4518 242.88L80.3894 242.926C80.3068 242.987 80.2241 243.049 80.1402 243.108L79.3351 243.147C79.138 243.153 78.7247 243.204 78.525 243.168C77.1808 243.013 75.9879 242.016 75.4677 240.718C74.7797 239.486 74.1247 238.222 73.5194 236.949L73.5041 236.917C73.5016 236.914 73.4977 236.9 73.4977 236.907C73.5079 236.981 73.5257 237.055 73.5448 237.128C73.733 237.804 74.3244 238.337 75.0035 238.469C73.3909 238.753 71.744 237.815 71.4718 235.998L71.3358 235.019C71.2912 234.703 71.248 234.386 71.2098 234.07L73.1734 237.317C72.4218 237.052 71.6779 236.771 70.9364 236.484L70.9212 236.477L70.9135 236.475L70.8868 236.462L70.7813 236.407C68.6879 235.365 67.495 232.884 67.9172 230.545C68.1042 229.379 68.7121 228.308 69.5184 227.469C70.4824 226.389 71.5176 225.319 72.5681 224.335C72.7741 224.14 73.0094 223.924 73.2192 223.732L73.2447 223.708L73.2472 223.706C71.7427 225.839 72.8326 224.293 72.4969 224.768C72.5058 224.75 72.6139 224.553 72.6266 224.53C72.9102 224.037 73.2307 223.568 73.5919 223.131L73.6389 223.078L74.3676 222.256C74.4134 222.204 74.4821 222.129 74.5241 222.082C74.8026 221.888 75.0061 221.594 75.104 221.26C82.1636 214.163 77.0638 219.293 78.6395 217.71C78.7018 217.716 78.8023 217.724 78.8633 217.73L79.4038 217.78L75.9408 221.32L76.0082 220.579C76.0247 220.386 76.0502 220.171 76.0705 219.977C76.1252 218.656 76.6657 217.36 77.5394 216.437C77.645 216.324 77.7543 216.216 77.8688 216.113C77.4695 217.105 78.7908 213.868 76.9798 218.331C77.177 217.535 77.2482 216.712 77.1693 215.884C77.0561 215.12 76.8374 214.222 76.6784 213.443C76.5284 212.968 76.4571 212.465 76.4788 211.97C76.5424 211.259 76.6695 210.585 76.798 209.896C77.0294 208.698 77.3194 207.542 77.6704 206.396L77.7289 206.207L77.7569 206.118L77.7696 206.074L77.7734 206.064C77.7722 205.901 77.8078 207.442 77.79 206.784C77.2762 205.261 76.9175 203.666 76.611 202.089C76.344 200.854 75.9828 199.65 75.6127 198.433L75.558 198.251L75.53 198.16L75.516 198.115C75.2235 197.461 74.7543 196.899 74.229 196.453C73.8856 196.059 73.5473 195.654 73.2307 195.238L73.1747 195.164C73.1671 195.155 73.1518 195.133 73.1506 195.134L73.1429 195.131C72.9801 195.083 72.8606 194.982 72.7054 194.914C75.0213 195.82 69.554 193.684 70.0945 193.879L70.0449 193.825L69.9483 193.714C69.0466 192.666 68.7503 191.131 69.1852 189.81C69.3467 189.312 69.5998 188.849 69.933 188.453L69.9483 188.436L70.0106 188.368L70.2649 188.103L70.9021 187.44C72.0619 186.263 73.6987 185.674 75.2998 185.84C75.5593 185.867 75.8149 185.916 76.068 185.979C75.7233 185.777 79.1749 187.751 77.7162 186.92L77.7226 186.929L77.7353 186.949C78.2948 187.818 78.8417 188.713 79.3351 189.625C79.4598 189.884 79.5959 190.139 79.7421 190.39C79.8171 190.496 79.9049 190.594 79.9761 190.703C80.5688 191.548 80.8753 192.613 80.7455 193.641L80.7048 193.831L80.6947 193.879L80.6896 193.903C80.9935 194.193 78.0151 191.423 79.283 192.597C79.7752 192.729 80.261 192.934 80.6909 193.198C81.1919 193.507 81.6332 193.896 81.9741 194.378C82.1928 194.655 81.9766 195.088 81.6345 195.077L81.6358 195.087Z" fill="#0E460C"/>
<path d="M97.7185 187.686C97.7185 188.468 97.7173 187.908 97.716 188.085C97.6944 188.172 97.6842 188.267 97.6867 188.355C97.6956 188.567 97.7681 188.747 97.9131 188.891C97.9373 188.922 97.9831 188.931 97.9703 188.981V189.224C97.9614 189.914 97.8177 190.742 97.5647 191.288C97.2238 191.999 96.7482 192.726 95.9126 192.699C94.5824 192.651 93.1173 191.586 91.9753 192.925C91.4182 193.562 90.9515 194.826 90.5089 195.536C90.2838 195.906 89.9964 196.15 89.695 196.433C89.4114 196.698 89.1316 196.975 88.8327 197.197C87.65 198.103 86.045 197.688 84.7656 197.131C84.3828 197.097 83.9848 197.012 83.6363 196.847C83.4582 196.759 83.2726 196.668 83.1276 196.534C82.9572 196.303 82.741 195.992 82.5922 195.742C82.5006 195.59 82.409 195.432 82.3238 195.264C82.0211 194.642 82.5744 194.082 82.8592 193.587L83.1276 193.214C83.1428 193.198 83.139 193.182 83.1428 193.167L83.1479 193.12C83.1861 192.844 83.1174 192.574 82.9966 192.337C83.2764 191.703 83.6719 191.067 84.1043 190.59C84.6257 190.004 85.2336 189.597 86.0069 189.542C86.3757 189.508 86.7648 189.527 87.1489 189.534C87.5571 189.544 87.931 189.532 88.3393 189.659C89.1468 189.84 90.0142 190.61 90.823 190.584C91.6179 190.559 91.9028 189.992 91.988 189.247C92.1508 188.412 92.0719 187.415 92.6302 186.809C93.5548 186.053 94.8952 186.176 96.0258 186.556C96.1339 186.592 96.3539 186.674 96.4595 186.72C96.4837 186.743 96.5663 186.726 96.6286 186.734C97.0229 186.754 97.4171 186.9 97.6639 187.222L97.6906 187.258L97.7033 187.276L97.7096 187.285C97.7122 187.462 97.7135 186.902 97.716 187.684L97.7185 187.686Z" fill="#0E460C"/>
<path d="M115.895 176.834C116.53 177.268 116.074 176.958 116.218 177.056L116.224 177.063L116.237 177.075C116.252 177.089 116.294 177.13 116.31 177.145C116.875 177.678 117.648 178.469 118.012 179.074C118.148 179.295 118.298 179.634 118.138 179.736C118.087 179.772 117.924 179.762 117.802 179.742C117.66 179.715 117.496 179.677 117.356 179.636C116.698 179.471 114.953 178.797 115.985 180.049C116.146 180.234 116.452 180.565 116.621 180.746C116.766 180.899 116.959 181.105 117.071 181.276C117.157 181.393 117.215 181.536 117.277 181.664C117.381 181.898 117.641 182.298 117.385 182.502C116.861 182.839 115.621 182.599 115.006 182.476C114.806 182.441 114.483 182.353 114.285 182.301C114.035 182.235 113.696 182.149 113.448 182.065C113.041 181.951 112.71 181.67 112.399 181.412C112.186 181.223 111.862 180.958 111.655 180.765C111.356 180.485 111.006 180.136 110.752 179.832C110.525 179.56 110.289 179.237 110.17 178.915C110.024 178.514 110.275 178.416 110.608 178.317C110.918 178.234 111.216 178.121 111.545 178.144C111.671 178.142 111.915 178.18 112.048 178.199C112.297 178.239 112.739 178.303 112.984 178.339C114.11 178.476 113.763 177.966 113.137 177.27C112.977 177.089 112.825 176.911 112.671 176.73C112.596 176.636 112.503 176.513 112.435 176.411C112.364 176.298 112.294 176.145 112.308 176.07C112.345 175.845 112.724 175.795 113 175.808C113.712 175.836 114.744 176.229 115.453 176.56C115.475 176.569 115.526 176.593 115.546 176.601L115.561 176.608L115.569 176.612C115.713 176.709 115.257 176.398 115.895 176.831V176.834Z" fill="#0E460C"/>
<path d="M82.3264 195.129C82.3137 195.793 82.3009 196.654 82.278 197.313C82.2691 197.587 82.2602 197.947 82.2297 198.215C82.2272 198.228 82.2246 198.246 82.2221 198.253C82.2195 198.258 82.217 198.254 82.2145 198.235C82.2119 198.22 82.2094 198.19 82.2068 198.134L82.1992 197.985C82.1801 197.438 82.161 196.535 82.1343 195.997C82.1203 195.794 82.1038 196.007 82.1013 196.063C82.0695 196.629 82.0542 197.479 82.0275 198.05C82.0148 198.277 81.9906 198.623 81.9703 198.825C81.9588 198.934 81.9487 198.968 81.9372 198.908C81.9194 198.801 81.9118 198.634 81.9041 198.519C81.8495 197.555 81.8278 196.105 81.8062 195.13C81.8011 193.844 81.8444 192.242 81.9041 190.961C81.9118 190.847 81.9181 190.68 81.9372 190.572C81.9487 190.512 81.9588 190.546 81.9703 190.655C81.9906 190.857 82.0135 191.201 82.0275 191.43C82.0542 192.003 82.0695 192.85 82.1013 193.416C82.1038 193.472 82.1191 193.686 82.1343 193.483C82.1661 192.881 82.1776 191.951 82.2081 191.345C82.2106 191.288 82.2132 191.258 82.2157 191.244C82.2234 191.195 82.2284 191.247 82.2323 191.264C82.2793 191.698 82.2793 192.253 82.2971 192.695C82.3124 193.455 82.3391 194.371 82.3302 195.13L82.3264 195.129Z" fill="#0E460C"/>
<path d="M115.428 230.94C115.391 231.492 115.344 232.082 115.283 232.627C115.246 232.957 115.188 233.373 115.12 233.673C115.091 233.785 115.05 233.945 114.993 234.027C114.969 234.061 114.945 234.085 114.92 234.048C114.899 234.016 114.88 233.944 114.866 233.892C114.764 233.364 114.707 232.689 114.63 232.152C114.606 231.994 114.53 231.449 114.404 231.89C114.292 232.371 114.235 232.978 114.16 233.472C114.094 233.925 113.976 234.289 113.834 234.64C113.586 235.2 113.355 233.294 113.327 233.132C113.268 232.714 113.219 232.229 113.182 231.808C113.136 231.284 113.066 230.68 113.109 230.159C113.164 229.445 113.229 228.674 113.327 227.966C113.356 227.784 113.588 225.904 113.834 226.458C113.976 226.808 114.094 227.173 114.16 227.627C114.201 227.916 114.263 228.379 114.305 228.668C114.33 228.833 114.366 229.079 114.413 229.236C114.586 229.805 114.678 228.472 114.703 228.377C114.733 228.132 114.791 227.641 114.83 227.402C114.842 227.321 114.861 227.218 114.885 227.142C114.906 227.064 114.936 226.982 114.993 227.071C115.05 227.155 115.091 227.313 115.12 227.425C115.156 227.576 115.18 227.732 115.21 227.928C115.25 228.16 115.282 228.469 115.31 228.706C115.366 229.432 115.472 230.207 115.428 230.938V230.94Z" fill="#0E460C"/>
<path d="M98.1001 187.686C100.069 190.855 100.878 194.592 101.119 198.266C101.202 199.45 101.159 200.624 100.903 201.793C100.664 202.968 100.221 204.143 99.8195 205.32C99.2002 207.069 98.8059 208.787 98.867 210.61C98.8886 211.798 99.0488 212.973 99.3261 214.137C99.747 215.904 100.408 217.665 100.79 219.427C101.042 220.451 101.192 221.901 101.324 222.954C101.615 225.296 101.923 227.646 101.797 230.007C101.592 233.613 100.89 237.167 99.6796 240.587C99.2345 241.797 98.7563 242.974 98.1001 244.114C97.9386 244.404 97.4973 244.407 97.337 244.114C96.9924 243.526 96.719 242.939 96.457 242.351C94.4438 237.648 93.2661 231.591 93.7163 226.481C93.8155 225.306 93.9694 224.129 94.1118 222.954C94.2479 221.891 94.3942 220.457 94.646 219.427C95.0275 217.664 95.6888 215.904 96.1098 214.137C96.8449 211.086 96.719 208.283 95.6163 205.32C95.0046 203.574 94.3815 201.864 94.2962 200.03C94.2263 197.032 94.7045 194.072 95.6723 191.213C96.1098 189.986 96.607 188.812 97.337 187.686C97.5113 187.414 97.9259 187.413 98.1001 187.686Z" fill="#0E460C"/>
<path d="M113.492 181.889C115.413 184.54 116.274 187.798 116.513 191.013C116.595 192.037 116.551 193.049 116.296 194.053C116.057 195.068 115.615 196.082 115.213 197.094C114.596 198.599 114.199 200.068 114.26 201.656C114.282 202.686 114.444 203.699 114.72 204.697C115.14 206.222 115.802 207.739 116.183 209.259C116.434 210.142 116.585 211.39 116.717 212.3C117.009 214.316 117.316 216.343 117.191 218.383C116.939 222.062 116.022 225.71 114.372 229.028C114.11 229.535 113.837 230.042 113.492 230.549C113.315 230.818 112.905 230.82 112.729 230.549C112.078 229.574 111.597 228.56 111.15 227.508C110.324 225.531 109.769 223.504 109.397 221.425C109.031 219.408 108.894 217.381 109.11 215.342C109.209 214.328 109.363 213.314 109.505 212.301C109.641 211.382 109.788 210.146 110.039 209.26C110.421 207.741 111.082 206.223 111.503 204.698C112.242 202.042 112.109 199.649 111.01 197.096C110.402 195.594 109.779 194.135 109.69 192.534C109.62 189.931 110.106 187.374 111.066 184.931C111.508 183.861 112.007 182.849 112.73 181.89C112.919 181.639 113.305 181.639 113.494 181.89L113.492 181.889Z" fill="#0E460C"/>
</g>
<defs>
<clipPath id="clip0_71_11596">
<rect width="40.5394" height="59.0311" fill="white" transform="translate(22.3167 108.954)"/>
</clipPath>
<clipPath id="clip1_71_11596">
<rect width="40.5394" height="59.0311" fill="white" transform="translate(72.813 39.2544)"/>
</clipPath>
<clipPath id="clip2_71_11596">
<rect width="50.3746" height="70.4172" fill="white" transform="translate(127.699 101.13)"/>
</clipPath>
<clipPath id="clip3_71_11596">
<rect width="50.3746" height="70.4172" fill="white" transform="translate(67.8346 175.808)"/>
</clipPath>
</defs>
</svg>
