<?xml version="1.0" encoding="UTF-8"?><svg xmlns="http://www.w3.org/2000/svg" width="217.47" height="220" viewBox="0 0 217.47 220"><defs><style>.cls-1{fill:#0e460c;stroke-width:0px;}.cls-2{fill:none;stroke:red;stroke-miterlimit:10;stroke-width:5px;}</style></defs><g id="Layer_1"><path class="cls-1" d="m62.01,213.73s-.05,0-.07,0l-3.32-.42c-.09-.01-.17-.04-.24-.09l-3.11-2.08c-.1-.07-.18-.17-.22-.29l-.74-2.22-4.49-1.44-1.21,2.1c-.14.24-.42.34-.68.25l-1.5-.55-1.68.56c-.1.03-.2.04-.3.01l-2.7-.62c-.2-.05-.36-.2-.41-.39l-2.59-8.97-1.9-.17c-.29-.03-.51-.27-.51-.56v-1.11l-5.92-2.96c-.16-.08-.27-.23-.3-.41s.03-.36.16-.49l8.24-8.24.37-.75s.04-.06.06-.09l3.42-4.42.04-2.51c0-.31.25-.55.56-.55h.64v-2.97c0-.15.06-.29.16-.4l.87-.87v-2.55l-2.86-6.33c-.03-.06-.05-.13-.05-.21l-.21-4.77c0-.06,0-.13.02-.19l1.19-3.98-.98-2.73c-.02-.05-.03-.11-.03-.16l-.62-12.51-4.52-7.07-3.2.19c-.16,0-.32-.05-.43-.16l-.62-.62c-.2-.2-.22-.53-.03-.75l3.11-3.74c.13-.16.33-.23.53-.19l2.28.42c.12.02.23.08.32.18l3.72,4.13,1.84,1.64c.11.09.17.22.19.36l.16,1.57h1.36c.09,0,.17.02.25.06l2.4,1.19h2.03l12.5-4.71,9.08-6.19c.09-.06.2-.1.32-.1h1.66c.05,0,.1,0,.15.02l2.68.77,3.12-1.75c.06-.04.13-.06.21-.07l1.66-.21c.11-.01.23,0,.33.06l3.02,1.6h2.55l3.31-2.53,2.23-3.25c.05-.07.1-.12.17-.16l1.94-1.16,3.66-7.12s.02-.04.03-.06l3.66-5.49.61-6.92c.02-.2.14-.38.33-.46l1.29-.57-2.17-3.61c-.06-.1-.09-.22-.08-.34l.62-6.44.82-10.72-2.03-12.6-2.42-2.05-2.54-.39c-.1-.02-.2-.06-.28-.13l-4.15-3.53-4.9-3.67-9.19-3.68-10.5-.62-8.34-1.04s-.08-.01-.12-.03l-3.39-1.2-3.17.6c-.07.01-.14.01-.21,0l-6.54-1.24h-5.6c-.13,0-.25-.04-.35-.12l-10.57-8.29-5.66-3.84-4.82-.2c-.1,0-.2-.04-.29-.09l-4.24-2.83-5.25-.4c-.16-.01-.3-.09-.4-.21l-2.91-3.74c-.05-.07-.09-.15-.11-.23l-2.68-12.8L.06,7.9c-.05-.1-.07-.21-.05-.32l.52-3.63c.03-.22.2-.41.42-.46.22-.06.45.03.59.21l4.88,6.54s.01.02.02.03l6.33,9.81,20.79,7.62s.09.04.12.06l3.9,2.67,18.15,7.63,14.05,2.07c.05,0,.1.02.15.05l2.59,1.19h15.65c.08,0,.16.02.24.05l6.15,2.87,16.41,2.05,17.74-5.16c.08-.02.16-.03.24-.02l5.61.83c.29.04.5.3.48.59l-.19,3.08,6.53,7.12,5.37.2c.18,0,.34.1.44.24l2.13,3.1,4.27.37,4.39-3.99c.08-.08.19-.13.3-.14l16.92-2.27,14.16-7.8,4.29-4.29,2.06-2.47c.04-.05.09-.09.15-.13l13.91-8.1c.14-.08.31-.1.46-.05.15.05.28.16.34.31l6.64,15.71c.03.07.04.14.04.22v3.81c0,.17-.07.32-.2.43l-1.25,1.04c-.18.15-.42.17-.62.06l-2.51-1.35-2.34.54-8.84,8.44.2,4.94c0,.14-.04.29-.14.39l-1.5,1.69.19,2.04c0,.06,0,.13-.01.19l-1.02,4.07.2,4.35,2.63,4.45c.09.15.1.33.04.49l-1.66,4.15c-.05.12-.13.21-.24.28l-6.02,3.53c-.1.06-.22.09-.35.07l-9.34-1.04c-.11-.01-.21-.06-.3-.13l-2.7-2.28c-.13-.11-.2-.26-.2-.43v-2.62l-1.12-3.91-2.11-.16-3.16,2.17c-.07.05-.16.08-.25.09l-1.66.21c-.1.01-.21,0-.3-.05l-4.19-1.92v2.03c0,.12-.04.23-.1.33l-1.97,2.76v7.92s0,.08-.01.12l-.82,3.68v4.63l1.15,3.63,7.25,3.42c.06.03.12.07.17.13l8.1,8.72c.08.09.14.21.15.33l.2,2.37,6.75,11.87,2.44,2.44c.08.08.13.18.15.29l2.05,10.46,1.37,1.76c.11.14.15.32.1.49s-.17.31-.34.37l-2.47.95-1.78,4.54c-.05.12-.13.22-.24.28l-5.53,3.2v1.51c0,.08-.02.16-.05.23l-.83,1.87c-.09.2-.28.33-.49.33-.21,0-.41-.11-.51-.3l-1.93-3.67-6.33-.4c-.1,0-.2-.04-.28-.1l-5.26-3.64-7.22-.2-4.57,6.09,2.06,2.99c.11.16.13.36.05.54-.08.18-.24.3-.43.33l-2.62.37-.86,1.71-.41,5.7c-.02.24-.19.45-.43.51l-3.4.8-3.01,2.61c-.07.06-.15.1-.23.12l-5.64,1.41-2.1,2.45.94,1.41,4.87,2.88c.17.1.28.28.28.48v2.46c0,.21-.12.41-.31.5l-8.93,4.36c-.09.04-.19.06-.29.05l-4.98-.42-9.75-.62s-.06,0-.09-.01l-8.21-1.85-5.53.59-20.35,19.53-3.28,5.74c-.1.17-.27.27-.46.28l-4.99.2-2.76,2.36c-.1.09-.23.13-.36.13h-5.19c-.12,0-.25-.04-.34-.12l-3.43-2.67-5.07,3.12c-.09.05-.19.08-.29.08Zm-3.12-1.51l3,.37,5.23-3.22c.2-.12.45-.11.64.03l3.58,2.79h4.79l2.75-2.36c.1-.08.22-.13.34-.13l4.88-.2,3.17-5.54s.06-.09.1-.13l20.55-19.72c.09-.09.2-.14.33-.15l5.81-.62c.06,0,.12,0,.18.01l8.26,1.86,9.71.62,4.84.4,8.47-4.14v-1.79l-4.71-2.78c-.07-.04-.13-.1-.18-.17l-1.25-1.87c-.14-.21-.12-.48.04-.68l2.49-2.91c.08-.09.18-.15.29-.18l5.68-1.42,3.01-2.61c.07-.06.15-.1.24-.12l3.13-.74.39-5.4c0-.07.02-.14.06-.21l1.04-2.08c.08-.16.24-.28.42-.3l2.01-.29-1.77-2.58c-.14-.2-.13-.46.01-.65l4.98-6.64c.11-.15.28-.23.46-.22l7.68.21c.11,0,.21.04.3.1l5.27,3.65,6.49.41c.2.01.37.13.46.3l1.54,2.92.31-.7v-1.71c0-.2.11-.38.28-.48l5.64-3.26,1.8-4.59c.06-.15.17-.26.32-.32l1.99-.77-.99-1.27c-.05-.07-.09-.15-.11-.24l-2.04-10.42-2.37-2.37s-.07-.08-.09-.12l-6.85-12.04c-.04-.07-.06-.15-.07-.23l-.19-2.3-7.89-8.5-7.38-3.48c-.14-.07-.25-.19-.29-.34l-1.25-3.94c-.02-.05-.03-.11-.03-.17v-4.77s0-.08.01-.12l.82-3.68v-8.03c0-.12.04-.23.1-.33l1.97-2.76v-2.73c0-.19.1-.37.26-.47.16-.1.36-.12.54-.04l4.84,2.22,1.37-.17,3.21-2.21c.11-.07.23-.11.36-.1l2.7.21c.23.02.43.18.5.4l1.25,4.36s.02.1.02.15v2.44l2.37,2.01,8.99,1,5.69-3.34,1.49-3.72-2.56-4.33c-.05-.08-.07-.17-.08-.26l-.21-4.57c0-.05,0-.11.02-.16l1.02-4.06-.2-2.19c-.01-.15.04-.31.14-.42l1.51-1.7-.2-4.96c0-.16.06-.32.17-.43l9.13-8.72c.07-.07.16-.12.26-.14l2.7-.62c.13-.03.27-.01.39.05l2.37,1.27.75-.63v-3.43l-6.35-15.02-13.27,7.73-2.01,2.42s-.02.03-.03.04l-4.36,4.36s-.08.07-.13.09l-14.32,7.89c-.06.03-.13.06-.2.06l-16.85,2.26-4.44,4.03c-.12.1-.27.16-.43.14l-4.77-.42c-.17-.01-.32-.1-.41-.24l-2.12-3.09-5.32-.2c-.15,0-.29-.07-.39-.18l-6.85-7.47c-.1-.11-.16-.26-.15-.41l.18-2.81-4.98-.74-17.73,5.16c-.07.02-.15.03-.23.02l-16.61-2.08c-.06,0-.11-.02-.17-.05l-6.11-2.85h-15.65c-.08,0-.16-.02-.23-.05l-2.63-1.21-14.04-2.06s-.09-.02-.14-.04l-18.27-7.68s-.07-.03-.1-.05l-3.89-2.66-20.9-7.66c-.11-.04-.21-.12-.28-.22l-6.43-9.95L1.44,5.45l-.3,2.12,3.45,7.11s.03.08.04.13l2.67,12.74,2.67,3.44,5.15.4c.1,0,.19.04.27.09l4.23,2.82,4.83.2c.1,0,.2.04.29.1l5.81,3.94s.02.01.03.02l10.44,8.18h5.46s.07,0,.1,0l6.49,1.23,3.22-.6c.1-.02.2-.01.29.02l3.47,1.23,8.24,1.03,10.55.62c.06,0,.12.02.18.04l9.34,3.74s.09.04.13.07l4.98,3.74,4.06,3.45,2.54.39c.1.02.2.06.28.13l2.7,2.28c.1.09.17.21.19.34l2.08,12.87s0,.09,0,.13l-.83,10.79-.61,6.26,2.4,3.99c.08.14.1.3.05.46-.05.15-.16.28-.31.34l-1.57.7-.59,6.73c0,.09-.04.18-.09.26l-3.72,5.58-3.72,7.24c-.05.09-.12.17-.21.22l-1.97,1.18-2.21,3.22s-.07.09-.12.13l-3.53,2.7c-.1.07-.22.12-.34.12h-2.88c-.09,0-.18-.02-.26-.06l-2.99-1.58-1.38.17-3.23,1.81c-.13.07-.29.09-.43.05l-2.83-.81h-1.41l-8.99,6.13s-.08.05-.12.06l-12.66,4.77c-.06.02-.13.04-.2.04h-2.26c-.09,0-.17-.02-.25-.06l-2.4-1.19h-1.74c-.29,0-.53-.22-.56-.5l-.19-1.86-1.7-1.52s-.03-.03-.04-.04l-3.61-4.01-1.77-.32-2.58,3.09.08.08,3.28-.19c.2-.01.4.09.5.26l4.77,7.47c.05.08.08.18.09.27l.62,12.58,1.01,2.83c.04.11.04.23,0,.35l-1.22,4.06.2,4.57,2.86,6.34c.03.07.05.15.05.23v2.91c0,.15-.06.29-.16.4l-.87.87v3.3c0,.31-.25.56-.56.56h-.65l-.04,2.15c0,.12-.04.24-.12.33l-3.5,4.52-.39.78c-.03.05-.06.1-.11.15l-7.75,7.75,5.53,2.77c.19.09.31.29.31.5v.94l1.77.16c.23.02.42.18.49.4l2.61,9.03,2.22.51,1.72-.57c.12-.04.25-.04.37,0l1.24.46,1.2-2.08c.13-.23.4-.33.66-.25l5.19,1.66c.17.05.3.19.36.36l.77,2.31,2.84,1.9Z"/><path class="cls-1" d="m.56,220c-.1,0-.19-.08-.19-.19V.19c0-.1.08-.19.19-.19s.19.08.19.19v219.63c0,.1-.08.19-.19.19Z"/><path class="cls-1" d="m217.28.37H.56c-.1,0-.19-.08-.19-.19s.08-.19.19-.19h216.72c.1,0,.19.08.19.19s-.08.19-.19.19Z"/><path class="cls-1" d="m217.28,27.77H.56c-.1,0-.19-.08-.19-.19s.08-.19.19-.19h216.72c.1,0,.19.08.19.19s-.08.19-.19.19Z"/><path class="cls-1" d="m217.28,55.18H.56c-.1,0-.19-.08-.19-.19s.08-.19.19-.19h216.72c.1,0,.19.08.19.19s-.08.19-.19.19Z"/><path class="cls-1" d="m217.28,82.58H.56c-.1,0-.19-.08-.19-.19s.08-.19.19-.19h216.72c.1,0,.19.08.19.19s-.08.19-.19.19Z"/><path class="cls-1" d="m217.28,109.98H.56c-.1,0-.19-.08-.19-.19s.08-.19.19-.19h216.72c.1,0,.19.08.19.19s-.08.19-.19.19Z"/><path class="cls-1" d="m217.28,137.38H.56c-.1,0-.19-.08-.19-.19s.08-.19.19-.19h216.72c.1,0,.19.08.19.19s-.08.19-.19.19Z"/><path class="cls-1" d="m217.28,164.78H.56c-.1,0-.19-.08-.19-.19s.08-.19.19-.19h216.72c.1,0,.19.08.19.19s-.08.19-.19.19Z"/><path class="cls-1" d="m217.28,192.18H.56c-.1,0-.19-.08-.19-.19s.08-.19.19-.19h216.72c.1,0,.19.08.19.19s-.08.19-.19.19Z"/><path class="cls-1" d="m217.28,219.58H.56c-.1,0-.19-.08-.19-.19s.08-.19.19-.19h216.72c.1,0,.19.08.19.19s-.08.19-.19.19Z"/><path class="cls-1" d="m24.64,220c-.1,0-.19-.08-.19-.19V.19c0-.1.08-.19.19-.19s.19.08.19.19v219.63c0,.1-.08.19-.19.19Z"/><path class="cls-1" d="m48.72,220c-.1,0-.19-.08-.19-.19V.19c0-.1.08-.19.19-.19s.19.08.19.19v219.63c0,.1-.08.19-.19.19Z"/><path class="cls-1" d="m72.8,220c-.1,0-.19-.08-.19-.19V.19c0-.1.08-.19.19-.19s.19.08.19.19v219.63c0,.1-.08.19-.19.19Z"/><path class="cls-1" d="m96.88,220c-.1,0-.19-.08-.19-.19V.19c0-.1.08-.19.19-.19s.19.08.19.19v219.63c0,.1-.08.19-.19.19Z"/><path class="cls-1" d="m120.96,220c-.1,0-.19-.08-.19-.19V.19c0-.1.08-.19.19-.19s.19.08.19.19v219.63c0,.1-.08.19-.19.19Z"/><path class="cls-1" d="m145.04,220c-.1,0-.19-.08-.19-.19V.19c0-.1.08-.19.19-.19s.19.08.19.19v219.63c0,.1-.08.19-.19.19Z"/><path class="cls-1" d="m169.12,220c-.1,0-.19-.08-.19-.19V.19c0-.1.08-.19.19-.19s.19.08.19.19v219.63c0,.1-.08.19-.19.19Z"/><path class="cls-1" d="m193.2,220c-.1,0-.19-.08-.19-.19V.19c0-.1.08-.19.19-.19s.19.08.19.19v219.63c0,.1-.08.19-.19.19Z"/><path class="cls-1" d="m217.28,220c-.1,0-.19-.08-.19-.19V.19c0-.1.08-.19.19-.19s.19.08.19.19v219.63c0,.1-.08.19-.19.19Z"/></g><g id="Layer_2"><polyline class="cls-2" points="154.99 164.6 155.21 161.48 156.25 159.41 159.16 158.99 156.87 155.67 161.86 149.03 169.12 149.22 169.53 149.23 174.93 152.97 181.57 153.38 183.65 157.33 184.48 155.46 184.48 153.63 190.3 150.27 192.16 145.5 193.2 145.1 194.86 144.46 193.41 142.59 193.2 141.52 192.35 137.19 191.33 132 188.84 129.51 181.99 117.47 181.78 114.98 176.96 109.79 173.69 106.26 169.12 104.1 166.22 102.73 164.97 98.79 164.97 94.02 165.8 90.28 165.8 82.39 165.8 82.18 167.87 79.28 167.87 76.37 169.12 76.94 172.86 78.65 174.52 78.44 177.84 76.16 180.54 76.37 181.78 80.73 181.78 82.39 181.78 83.43 184.48 85.71 193.2 86.68"/></g></svg>